<?xml version="1.0" encoding="UTF-8"?>
<svg id="a" data-name="Слой 1" xmlns="http://www.w3.org/2000/svg" viewBox="0 0 1069.01 986.77">
  <defs>
    <style>
      .b {
        fill: #fefefe;
      }

      .b, .c, .d, .e, .f, .g, .h, .i, .j, .k, .l, .m {
        stroke-width: 0px;
      }

      .c {
        fill: #de4d21;
      }

      .d {
        fill: #de4d22;
      }

      .e {
        fill: #de4e23;
      }

      .f {
        fill: #dd4d22;
      }

      .g {
        fill: #dc4d21;
      }

      .h {
        fill: #de4a24;
      }

      .i {
        fill: #de4e22;
      }

      .j {
        fill: #dd4e22;
      }

      .k {
        fill: #d6a491;
      }

      .l {
        fill: #eec9b9;
      }

      .m {
        fill: #dc4e22;
      }
    </style>
  </defs>
  <path class="c" d="m68.79,499.86c30.8-3.05,61.61-6.11,92.41-9.15,18.22-1.8,36.43-3.56,54.65-5.35,3.25-.32,6.63,0,11.42-2.36-34.88-20.86-69.2-40.09-103.42-60.19,50.41-4,100.97-1.93,153.42-5.46-29.69-31.49-58.23-61.75-86.77-92.01,32.82,3.24,64.48,9,98.81,12.8-19.04-24.07-38.41-45.27-56.92-67.15-18.71-22.12-37.46-44.21-56.2-66.3-18.6-21.92-37.21-43.82-55.14-66.56,82.67,46.17,162.38,97.01,244.75,147.45-6.01-39.43-11.7-76.69-17.38-113.95.58-.32,1.16-.65,1.74-.97,32.11,33.58,64.21,67.16,97.68,102.17,16.28-51.71,32.08-101.87,47.87-152.02,18.38,40.33,33.14,81.43,48.97,124.43,36.58-70.61,69.93-140.62,107.34-208.8-8.08,71.52-16.15,143.03-24.52,217.13,18.24-13.83,32.92-28.08,50.25-42.17v63.61c.69.35,1.38.7,2.08,1.05,66.77-61.34,133.54-122.67,200.3-184.01.57.41,1.14.82,1.71,1.22-49.83,93.74-100.06,187.28-149.24,282.75,60.31,6.53,118.94,12.88,177.57,19.22.17.7.34,1.4.51,2.09-41.12,26.1-82.25,52.21-125.11,79.42,94.16,18.41,186.71,34.45,279.2,52.67-93.33,17.59-186.65,35.18-281.82,53.12,7.82,10.25,17.16,17.03,25.19,24.99,7.96,7.89,16.52,15.17,24.84,24.73-19.62,3.76-38.2,5.76-58.77,8.6,31.85,33.02,64.25,62.91,95.4,94.07,31.08,31.08,61.49,62.83,91.17,93.24-78.07-36.2-157.93-73.23-239.64-111.11,3.54,18.46,9.5,34.43,14.05,50.76,4.52,16.24,9.16,32.44,13.75,48.66-.58.38-1.15.76-1.73,1.14-23.81-15.63-47.62-31.25-73.11-47.99,3.56,32.23,8.47,62.47,12.59,93.26-20.75-20.65-39.94-42.69-61.63-62.69,3.13,62.34,7.83,124.25,10.06,186.57-35.5-70.05-69.53-140.79-103.13-211.31-1.04-.12-1.36-.19-1.68-.18-.31,0-.73,0-.91.18-.69.71-1.39,1.44-1.92,2.27-26.19,40.95-50.38,83.16-77.45,123.56-.14.21-.61.21-2.23.71-4.34-45.72-7.06-91.29-10.47-138.92-21.31,18.63-39.85,37.91-59.39,56.09-19.75,18.37-38.98,37.3-58.53,55.89-19.31,18.36-38.67,36.67-58.12,54.87-19.66,18.4-39.45,36.65-59.99,54.44,40.52-87.49,84.98-172.96,127.23-261.9-24.89,6.48-47.13,14.87-71.85,22.58,15.21-28.3,29.57-55.02,44.64-83.07-88.58,10.11-174.91,23.87-261.47,35.91-.29-.63-.57-1.26-.86-1.89,24.45-14.28,48.95-28.47,73.33-42.87,24.36-14.4,48.59-29.02,72.89-43.52,24.52-14.63,49.14-29.1,74.62-45.74-64.9-22.06-129.01-40.84-192.89-60.35-1.6-2.35.61-2.76,1.86-3.65Z"/>
  <path class="g" d="m369.93,13.3c29.69-4.63,57.5-8.97,85.27-13.3,1.54,7.57-11.72,136.93-16.29,158.38-23.2-48.79-45.67-96.04-68.99-145.08Z"/>
  <path class="f" d="m95.6,292.22c27.88,24.69,54.42,48.2,81.27,71.98-2.64,2.8-5.4,1.62-7.72,1.41-23.84-2.13-47.65-4.46-71.49-6.64-8.27-.75-16.57-1.28-24.86-1.81-3.69-.23-5.78-1.28-4.05-5.51,8.08-19.65,17.17-38.84,26.84-59.44Z"/>
  <path class="j" d="m108.94,573.88c-33.63,14.8-67.26,29.6-101.82,44.82-2.27-18.62-4.55-36-6.46-53.43-1.56-14.22-1.37-14.22,12.52-11.53,31.9,6.18,63.81,12.35,95.71,18.52.02.54.03,1.08.05,1.62Z"/>
  <path class="i" d="m488.89,975.63c10.81-33.72,21.33-66.57,31.83-99.32,3,.25,3.28,2.44,3.95,4.22,11.08,29.2,22.16,58.41,33.17,87.63,2.16,5.72,1.73,6.51-4.09,6.71-20.26.69-40.53,1.22-60.8,1.76-.93.02-1.88-.44-4.07-.99Z"/>
  <path class="d" d="m939.19,297.48c-35.27,11.13-68.98,21.76-102.69,32.39-.4-.52-.81-1.03-1.21-1.55,20.39-28.54,40.77-57.07,62.04-86.85,13.92,18.63,27.34,36.58,41.85,56.01Z"/>
  <path class="m" d="m169.22,830.25c-15.3-17.83-29.51-34.39-44.78-52.18,32.25-13.32,64.16-25.17,95.84-38.23-15.65,30.64-33.14,59.8-51.06,90.41Z"/>
  <path class="f" d="m938.11,688.23c-26.55-20.13-52.02-39.44-77.5-58.76.16-.58.32-1.16.47-1.74,32.19-1.78,64.38-3.56,98.2-5.43-7.22,22.48-14.06,43.77-21.17,65.93Z"/>
  <path class="i" d="m967.88,407.87c2.26-3.16,4.61-3.62,6.73-4.49,27.04-11.06,54.09-22.12,81.14-33.17,1.54-.63,3.08-1.24,4.63-1.84,2.61-1.01,4.69-.75,4.92,2.58,1.28,18.51,2.5,37.02,3.71,55.54.02.26-.35.55-.97,1.48-33-6.62-66.28-13.3-100.15-20.1Z"/>
  <path class="i" d="m793.99,930.92c-8.4-28.81-16.44-56.37-24.47-83.93l1.7-1.4c23.69,16.5,47.38,33.01,72.48,50.49-16.8,11.77-32.61,22.86-49.71,34.85Z"/>
  <path class="i" d="m336.28,961.74c19.31-22.47,37.35-43.47,55.39-64.47.71.28,1.43.57,2.14.85-1.9,27.85-1.03,55.78-3.69,84.76-17.85-7.01-35-13.74-53.84-21.13Z"/>
  <path class="e" d="m768.41,67.03c-21.07,18.86-40.74,37.42-63.57,56.41,4.31-29.56,9.5-56.53,15.31-85.05,16.4,9.73,31.67,18.79,48.26,28.63Z"/>
  <path class="i" d="m284.29,144.51c-19.41-17.11-38.83-34.23-58.78-51.82,6.38-6.87,14.82-9.44,21.91-13.98,6.97-4.47,14.28-8.39,22.68-13.27,6.54,26.42,10.35,52.53,16.06,78.23-.63.28-1.25.56-1.88.83Z"/>
  <path class="k" d="m68.79,499.86c-.62,1.22-1.24,2.43-1.86,3.65-.97-.06-2.05.11-2.89-.26-.79-.35-1.79-1.21-1.89-1.95-.28-2.09,1.65-1.58,2.74-1.71,1.27-.15,2.6.15,3.9.26Z"/>
  <path class="b" d="m809.65,723.9c-3.08.02-5.81-1.26-8.4-2.62-40.46-21.13-82.79-38.03-124.81-55.66-.86-.36-1.87-.35-3.73-.67,6.41,27.16,16.28,52.85,23.56,81.48-21.79-13.8-41.84-26.5-63.49-40.21.81,21.18,5.4,40.06,6.44,60.16-8.29-8.3-16.53-16.65-24.88-24.88-8.18-8.06-16.47-16-25.61-23.57,3.02,38.64,5.19,76.96,6.43,115.58-22.07-39.72-39.81-81.56-61.61-123.28-20.83,32.31-39.25,64.71-60.22,95.42-.72-.16-1.44-.31-2.17-.47-2.8-34.89-5.6-69.79-8.58-107.02-53.88,50.84-106.16,100.17-158.44,149.5-.66-.49-1.31-.99-1.97-1.48,28.24-57.72,56.47-115.43,85.57-174.9-22.6,4.54-42.44,10.77-64.22,16.74,11.93-21.81,22.86-41.8,34.93-63.86-58.31,7.38-114.19,14.45-170.08,21.52,46.13-31.06,93.94-59.03,141.52-91.12-39.5-12.43-77.67-23.22-114.98-38.38,34.24-3.39,68.48-6.78,102.72-10.17-28-18.34-55.05-37-82.8-55.99,36.1-.97,72.21-1.93,110.61-2.96-24.44-26.65-47.48-51.72-70.68-78.98,32.71,4.76,63.35,11.42,96.64,17.46-37.13-42.87-72.77-84.03-108.42-125.19.34-.47.68-.94,1.03-1.41,46.42,28.7,92.84,57.41,141.23,87.33-3.82-28.54-7.35-54.99-10.89-81.43l1.8-1.1c21.38,22.06,42.75,44.12,65.44,67.53,13.23-39.64,24.79-78.2,37.83-118.64,14.19,37.39,27.61,72.73,41.64,109.71,19.26-40.68,38.58-79.26,60.48-116.9-4.24,39.53-8.48,79.06-12.98,121.04,18.94-15.3,36.09-29.17,55.25-44.65-.42,24.32-1.94,46.1-1.42,67.78.48.24.75.43,1.06.51.29.08.66.14.9.02.59-.29,1.19-.62,1.66-1.05,41.12-37.91,81.77-76.33,123.65-113.42.24-.21.58-.31,2.52-1.32-29.3,56.22-58.8,110.66-86.81,167.15,45.75,4.92,90.3,9.71,135.01,14.52-.27,4.16-3.79,4.73-6.05,6.22-32.27,21.21-64.63,42.29-96.94,63.45-2.63,1.72-5.85,2.93-7.71,7.15,62,11.92,123.23,23.69,184.47,35.46-28.83,7.89-58.1,13.16-87.26,18.94-29.03,5.75-58.14,11.14-89.07,17.03,14.16,16.33,30.06,29.23,44.64,45.22-18.53,2.94-35.84,5.69-53.51,8.5.13,4.45,3.67,6.29,6.07,8.65,27.33,26.82,54.78,53.53,82.14,80.32,4.98,4.87,9.69,10.01,14.53,15.03.46,1.86-.15,2.58-2.05,1.89Z"/>
  <path class="l" d="m809.65,723.9c.68-.63,1.36-1.26,2.05-1.89,2.5.36,3.72,2.26,5.33,4.61-3.38.85-5.36-.97-7.38-2.72Z"/>
  <path class="h" d="m523.4,688.25c-83.14,1.82-169.5-68.5-169.33-169.87.16-93.39,78.49-169.04,169.7-168.65,93.54.4,168.81,75.38,168.52,168.2-.3,94.59-75.55,170.48-168.89,170.31Z"/>
</svg>