<?xml version="1.0" encoding="UTF-8"?>
<svg id="a" data-name="Слой 1" xmlns="http://www.w3.org/2000/svg" viewBox="0 0 1350.04 945.57">
  <defs>
    <style>
      .b {
        fill: #95999a;
      }

      .b, .c {
        stroke-width: 0px;
      }

      .c {
        fill: #969a9b;
      }
    </style>
  </defs>
  <path class="b" d="m714.98,600.01c-.49-7.4-3.07-14.12-4.57-21.06-11.69-54.04-5.71-105.5,24.32-152.64,28.6-44.9,69.82-72.54,121.76-83.78,42.67-9.23,83.98-4.34,122.81,15.67,57.89,29.83,92.18,77.73,102.26,141.76,6.83,43.38-2.42,84.46-25.07,122.29-5.48,9.15-5.42,9.28,1.45,17.25,25.33,29.36,38.34,63.32,36.94,102.22-2.74,76.54-57.84,134.6-129.73,145.36-24.45,3.66-48.82,1.95-72.64-5.34-3.36-1.03-4.39-1.52-1.67-4.92,26.29-32.77,43.86-69.76,52.72-110.82,2.46-11.38,4.17-22.94,4.48-34.59.27-9.95-8.34-16.39-17.92-13.9-5.8,1.51-9.57,6.53-10.11,13.4-1.77,22.36-5.75,44.3-14.58,64.99-33.16,77.69-90.04,127.97-173.39,144.86-60.19,12.2-117.2.98-169.64-31.43-11.63-7.19-22.22-15.85-31.85-25.65-2.81-2.86-1.92-3.7.93-5.63,30.79-20.81,51.27-48.97,59.98-85.32,2.04-8.51-2.35-16.6-9.63-18.3-8.25-1.93-15.56,2.92-17.7,12.05-6.56,27.94-22.73,49.31-45.41,66.06-25.33,18.71-54.17,27.96-85.28,31.01-10.99,1.08-21.97.72-32.95.73-70.32.08-140.65.69-210.96-.1-67.81-.76-121.06-30.32-159.5-85.92-17.17-24.82-26.13-52.95-29.06-83.01-3.11-31.96.95-62.93,14.02-92.26,21.6-48.5,56.81-83.47,106.91-101.91,47.29-17.4,94.32-16.33,139.99,6.3,23.37,11.58,41.99,28.63,55.67,50.92,1.95,3.17,4.14,6.1,7.49,7.85,4.89,2.55,11.52,1.7,15.44-1.85,4.42-4,5.98-10.31,3.4-16-3.52-7.78-8.44-14.75-13.75-21.38-28.63-35.76-66.5-55.48-110.98-63.64-1.14-.21-2.32-.77-3.42-.64-10.27,1.18-13.79-5.13-16.57-13.59-19.54-59.54-9.17-113.64,29.58-162.36,23.26-29.25,53.46-48.64,89.74-57.29,53.96-12.87,103.01-2.74,145.55,34.15,9.39,8.14,17.12,17.67,24.18,27.83,2.22,3.2,2.29,4.75-1.66,6.51-10.02,4.47-18.44,11.31-25.74,19.43-1.98,2.21-5.48,5.12-3.15,8.07,1.82,2.31,5.15-.53,7.61-1.58,27.08-11.6,54.96-19.45,84.78-17.42,28.47,1.94,54.5,10.24,75.85,30.24,7.03,6.59,16.58,6.41,22.24-.07,5.2-5.95,4.04-15.13-2.85-21.29-23.87-21.32-51.92-33.15-83.57-36.96-14.97-1.8-29.87-1.9-44.72.76-2.68.48-3.54-.83-4.66-2.57-12.85-19.86-29.31-36.17-48.94-49.28-1.84-1.23-2.3-2.46-2.05-4.52,6.6-54.95,28.04-103.45,63.72-145.61,38.48-45.47,87.2-74.61,144.74-89.18,20.06-5.08,40.52-7.26,61.25-7.78,43.04-1.08,84.16,7.16,123.01,25.43,60.78,28.59,105.44,73.66,134.17,134.38,13.17,27.82,20.43,57.22,23.06,87.88,2.41,28.16.41,55.86-7.31,83.09-.36,1.28-.77,2.55-1.1,3.84-.72,2.84-2.1,3.25-4.67,1.78-8.38-4.8-16.97-9.24-26.06-12.57-62.74-22.96-123.59-18.5-182.2,13.36-39.79,21.63-69.43,53.42-90.4,93.4-4.41,8.42-7.98,17.23-11.01,26.23-.93,2.78-2.02,3.4-5.01,2.97-45.94-6.56-90.43-.85-132.83,17.89-54.49,24.09-95,63.06-120.77,117-3.16,6.62-5.96,13.4-7.89,20.48-.85,3.12-2.5,4.42-5.59,5.36-31.45,9.48-56.45,27.78-74.91,55.06-7.13,10.53-1.05,21.82,8.79,23.16,6.89.95,12.29-2.02,16.02-7.91,13.55-21.39,32.99-34.81,56.93-42.19,10.32-3.18,20.86-3.82,31.6-3.5,9.42.28,16.31-7.2,15.17-15.8-.8-6.09-5.88-11.3-13.16-12.55-3.73-.64-4.15-1.61-2.73-5.01,18.39-43.84,49.41-76.2,90.51-99.2,36.18-20.25,75.26-27.9,116.47-25.18,6.46.43,12.85,1.74,19.3,2.38,3.26.33,3.97,1.82,3.84,4.89-.63,15.17-.27,30.33,2.86,45.25,3.92,18.69,9.97,36.61,20.27,52.87,1.15,1.82,2.58,3.47,4,5.09.73.83,1.4,1.9,3.49,2.01Z"/>
  <path class="c" d="m1046.86,884.2c14.9-11.68,27.95-23.52,38.67-37.68,21.22-28.01,33.82-59.4,36.72-94.54,3.66-44.31-7.64-84.41-34.2-120.08-2.17-2.91-1.09-4.81.05-7.16,8.43-17.25,15.52-35.02,19.32-53.89,12.37-61.53.06-117.92-35.76-169.3-11.89-17.05-25.83-32.19-42.26-44.98-1.44-1.12-2.27-1.96-1.54-4.08,7.73-22.29,12.4-45.21,13.62-68.78.22-4.29,2.1-5.09,6.04-5.66,32.85-4.77,64.33-.13,93.47,15.5,49.93,26.78,79.49,68.64,88.16,124.75,3.36,21.76,2.02,43.46-3.96,64.77-2.12,7.55-2.06,7.57-9.31,5.37-19-5.76-38.46-7.71-58.23-6.74-12.94.63-19.81,12.09-13.39,22.09,3.33,5.18,8.41,7.06,14.23,6.45,23.56-2.45,46.22,1.99,68.03,10.09,66.91,24.85,106.25,73.72,120.07,142.88,8.81,44.1.45,86.24-21.72,125.23-27.37,48.13-68.3,78.66-122.34,91.29-12.51,2.92-25.26,4.48-38.09,4.53-37.99.17-75.98.11-113.96.13-.79,0-1.59-.08-3.62-.19Z"/>
</svg>