<?xml version="1.0" encoding="UTF-8"?>
<svg id="a" data-name="Слой 1" xmlns="http://www.w3.org/2000/svg" viewBox="0 0 653.46 1038.64">
  <defs>
    <style>
      .b {
        fill: #fff;
      }

      .b, .c {
        stroke-width: 0px;
      }

      .c {
        fill: #ed512b;
      }
    </style>
  </defs>
  <path class="c" d="m464.38,484.36c.15,18.04-1.38,41.16-3.37,64.27-.3,3.49-.44,7.05-.08,10.52,1.41,13.65,13.12,20.83,25.99,15.98,6.54-2.46,11.66-6.91,15.92-12.34,10.91-13.91,17.47-29.93,21.55-46.88,8.18-33.99,10.53-68.41,6.04-103.19-.42-3.25-.46-6.55-.89-9.79-.48-3.6.27-6.69,3.66-8.35,3.37-1.65,6.86-1.32,10.02.82,1.98,1.34,3.26,3.33,4.63,5.24,25.88,35.92,46.51,74.72,63.41,115.55,13.92,33.63,24.49,68.32,31.84,103.95,6.68,32.41,10.92,65.15,10.31,98.29-1.67,91.89-36.54,169.21-103.67,231.85-42.15,39.34-91.62,65.87-147.68,79.16-69.64,16.5-137.79,10.91-203.74-17.35-63.9-27.38-114.56-70.57-151.91-129.09-23.9-37.46-38.57-78.37-44.18-122.54-6.95-54.71,2.58-106.71,24.66-156.85,14.24-32.33,33.35-61.78,53.15-90.83,26.52-38.9,54.89-76.53,79.9-116.46,24.47-39.06,45.11-79.95,58.4-124.25,12.85-42.84,17.78-86.5,13.9-131.18-3.87-44.52-16.81-86.21-37.52-125.64-1.2-2.28-2.57-4.52-3.36-6.94-1.5-4.56.95-7.86,5.73-8.26,2.99-.25,5.49.93,7.87,2.51,24.22,16.08,48.03,32.68,70.07,51.74,30.96,26.78,58.89,56.34,83.21,89.27,43.45,58.82,73.59,123.76,90.21,195.01,10.59,45.4,16.08,91.32,15.93,145.8Z"/>
  <path class="b" d="m482.48,839.81c.32,17.59-1.95,35.86-7.47,53.71-11.53,37.26-35.31,64.56-70.02,81.21-52.83,25.35-107.63,27.25-161.58,4.73-48.64-20.3-77.63-58.44-87.52-110.23-6.84-35.84-3-71.36,5.98-106.46,3.32-12.99,8.57-25.26,13.71-37.58.36-.86.79-1.7,1.23-2.53.68-1.27,1.5-2.5,3.17-2.28,2.15.28,2.33,1.98,2.35,3.68.06,5.86-.18,11.73.21,17.56,1.15,17.27,4.86,33.82,14.59,48.54,2.75,4.15,5.86,7.92,10.29,10.36,8.27,4.55,15.14.92,15.79-8.45.26-3.73.13-7.49.03-11.24-.97-35.69,6.07-69.86,19.9-102.66,11.51-27.31,28.15-51.24,48.87-72.38,1.54-1.57,3.07-4.29,5.74-2.71,2.82,1.66.78,4.26.17,6.31-11.98,39.93-8.3,79.2,5.17,117.97,9.43,27.12,23.55,51.49,43.86,72.02,8.15,8.23,17.5,14.86,27.84,20.04,34.64,17.36,67.03,1.28,81.31-28.63,4.26-8.92,7.1-18.33,7.99-28.25.08-.93.17-1.87.39-2.78.27-1.12.54-2.46,1.84-2.72,1.83-.37,2.37,1.23,2.83,2.49,3.65,10.15,6.67,20.49,8.73,31.08,3.09,15.9,4.72,31.95,4.6,49.2Z"/>
</svg>