<?xml version="1.0" encoding="UTF-8"?>
<svg id="a" data-name="Слой 1" xmlns="http://www.w3.org/2000/svg" viewBox="0 0 1197.42 1027.49">
  <defs>
    <style>
      .b {
        fill: #fac71c;
      }

      .b, .c, .d, .e, .f, .g, .h, .i, .j, .k, .l {
        stroke-width: 0px;
      }

      .c {
        fill: #fbc71d;
      }

      .d {
        fill: #fbc71c;
      }

      .e {
        fill: #fbc81d;
      }

      .f {
        fill: #eddb80;
      }

      .g {
        fill: #edd159;
      }

      .h {
        fill: #edda7a;
      }

      .i {
        fill: #f2d051;
      }

      .j {
        fill: #edd364;
      }

      .k {
        fill: #f0d569;
      }

      .l {
        fill: #efd361;
      }
    </style>
  </defs>
  <path class="e" d="m1142.48,519.17c-20.43,2.57-40.84,5.29-61.29,7.69-31.67,3.7-63.37,7.19-95.07,10.75-27.4,3.08-54.8,6.16-82.2,9.21-26.41,2.95-52.83,5.9-79.25,8.78-21.79,2.38-43.6,4.66-65.4,7-1.61.17-3.2.46-4.8.7-.34,3.83,2.7,4.54,4.75,5.92,40.8,27.5,81.7,54.87,122.44,82.46,27.8,18.82,55.41,37.92,83.1,56.89,1.63,1.9,3.92,2.86,5.98,4.15l-.03-.02c1.16,1.08,2.57,1.87,3.62,3.05,1.19,1.34,3.37,2.66,2.07,4.7-1.46,2.29-3.79,1.51-5.86.48h.03c-1.59-2.06-4.39-.37-6.13-1.96-32.7-11.18-65.48-22.18-98.1-33.59-50.52-17.68-100.93-35.65-151.39-53.47-2.13-.75-4.34-1.26-6.63-1.92-1.5,3.39.68,5.45,1.8,7.59,30.52,57.96,61.22,115.82,91.64,173.82,21.31,40.64,42.27,81.46,63.36,122.21.76,1.46,1.25,3.06,1.87,4.6,5.23,10.13,9.76,20.63,15.63,30.43l.02.04c2.3,5.47,4.68,10.89,7.86,15.93,1.96,5.75,4.94,10.99,8.12,16.13,1.21,1.64,1.77,3.53.31,5.1-1.87,2-3.27-.41-4.87-.96-.52-.66-1.04-1.32-1.55-1.98-1.32-3.23-3.84-5.59-5.99-8.21l.04.05c-1.68-3.01-3.62-5.81-6.5-7.83-.51-.66-1.03-1.32-1.54-1.98-1.28-3.27-3.91-5.55-5.94-8.28-15.15-19.81-30.33-39.61-45.44-59.45-39.93-52.43-79.81-104.89-119.76-157.31-21.99-28.85-44.09-57.61-66.12-86.43-1.77-2.31-3.23-4.93-7.5-6.2-12.86,96.96-25.64,193.36-38.42,289.76-.88.03-1.77.05-2.65.08-3.39-15.46-4.26-31.34-6.29-47.03-2.09-16.16-4.07-32.33-6.23-48.48-2.16-16.15-4.6-32.27-6.71-48.43-2.11-16.16-3.93-32.35-5.92-48.53-2-16.18-4.07-32.34-6.08-48.52-2-16.11-3.96-32.22-5.9-48.02-4.52-.9-5.58,2.14-7.03,4.05-12.3,16.15-24.42,32.43-36.65,48.63-27.07,35.85-54.18,71.68-81.28,107.51-27.71,36.63-55.29,73.35-83.2,109.82-17.99,23.51-35.07,47.71-54.09,70.42-1.68,1.72-2.7,5.52-5.85,3.56-2.61-1.62-.06-4.1.76-6.06,1.39-3.33,3.27-6.43,4.84-9.67,60.37-119.17,122.91-237.23,184.66-355.69-.6-.6-1.21-1.19-1.81-1.79-43.84,18.02-87.67,36.09-131.54,54.06-43.6,17.86-87.38,35.26-131.93,51.19,72.02-55.75,145.03-109.95,217.56-167.91-10.65-2.65-19.61-1.17-28.23-2.65-1.62-.28-3.32-.12-4.99-.16-42.27-.98-84.54-1.83-126.8-2.98-42.59-1.16-85.17-2.56-127.76-3.97-36.92-1.22-73.85-2.54-110.76-3.95-10.46-.4-20.91-1.3-31.44-2.85,148.69-20.75,297.47-40.6,446.57-63-1.71-4.89-5.42-6.76-8.5-8.98-59.93-43.23-119.1-87.46-178.01-132.07-15.92-12.05-31.92-23.98-47.88-35.97-1.23-.92-2.89-1.47-3.19-4.92,91.51,35.17,181.54,72.17,272.7,108.53.39-3.88-1.16-6.03-2.31-8.23-25.38-48.72-51.05-97.28-76.1-146.17-24.59-48-48.6-96.31-72.78-144.52-7.16-14.28-14.06-28.7-21.08-43.05-3.45-7.21-6.36-14.68-10.78-21.39-4.21-7.88-9.01-15.47-11.49-24.17-.92-1.48-1.19-3.42.47-4,3.14-1.09,4.12,1.94,5.6,3.82.64.76,1.27,1.52,1.91,2.27,1.88,1.51,2.5,4.02,4.34,5.56l-.03-.03c1.55,3.04,3.87,5.49,6.11,8,23.47,31.46,47.05,62.83,70.37,94.4,34.79,47.09,69.41,94.32,104.08,141.5,21.07,28.68,42.08,57.42,63.18,86.08,3.12,4.24,5.87,8.83,10.07,12.31,3.35-6.2,12.86-77.1,19.99-148.4,5.39-53.86,17.35-140.21,21.92-147.98,13.11,96.88,26.22,193.76,39.35,290.75,5.46-.72,6.84-4.48,8.86-7.33,26.74-37.73,53.57-75.39,80.06-113.29,50.5-72.26,100.8-144.67,151.17-217.02,3.42-4.91,6.71-9.91,10.06-14.87,1.63-1.83,2.66-4.04,3.93-6.11.56-.73,1.13-1.47,1.69-2.2,2.61-1.89,5.86-4,4.74,1.85-.68,3.56-2.74,7.01-4.42,10.39-59.15,128.1-119.58,255.6-181.89,382.7,4.75,1.96,7.67-.85,10.72-2.34,50.84-24.87,101.66-49.79,152.44-74.77,31.66-15.58,63.24-31.3,94.88-46.92,3.23-1.59,6.57-2.96,10.39-3.72-13.42,14.89-29.45,26.81-44.4,39.89-15.53,13.58-31.13,27.07-46.84,40.44-15.46,13.16-31.09,26.1-46.63,39.17-15.79,13.27-31.56,26.58-47.35,39.86-15.43,12.98-30.89,25.94-46.33,38.9.24.75.47,1.5.71,2.26,106.09,6,212.18,12.01,318.27,18.01.83.52,1.57,1.19,2.67,1.12,19.23-1.31,38.29,1.89,57.46,2.49,14.18.44,28.4,1.45,42.63,1.58,2.25.02,5.38-.53,5.62,2.56.31,4.08-3.3,3.11-5.77,3.35-2.25.22-4.69-.61-6.67,1.17h.02c-5.81,2.52-12.31-1.07-18.06,2.01Z"/>
  <path class="e" d="m890.3,800.53c-9.62-3.77-16.82-10.57-24.54-16.56-36.8-28.55-73.44-57.3-110.13-85.99-1.57-1.23-3.02-2.61-4.54-3.91-3.26-2.77-1.76-5.09.57-7.51,5.3-5.52,10.62-11.02,15.73-16.72,3.26-3.63,5.82-3.37,8.9.26,7.74,9.14,15.66,18.13,23.57,27.13,28.78,32.73,57.6,65.43,86.39,98.16,1.44,1.64,2.7,3.43,4.04,5.15Z"/>
  <path class="d" d="m701.34,143.49c-3.27,19.01-6.15,35.98-9.12,52.93-6.41,36.6-12.87,73.19-19.32,109.78-.4,2.29-.94,4.55-1.42,6.82-.6,2.85-2.24,3.73-5.08,3-8.03-2.07-16.08-4.12-24.17-5.97-4.83-1.11-5.54-3.55-3.82-7.95,7-17.94,13.75-35.98,20.64-53.96,12-31.32,24.02-62.63,36.07-93.92,1.17-3.05,1.99-6.32,6.22-10.73Z"/>
  <path class="c" d="m485.38,902.93c-1.26-5.86,1.01-11.27,2.06-16.72,9.12-47.01,18.3-94.01,27.83-140.94,3.33-16.39,1.31-15.49,17.4-10.36,4.12,1.32,8.25,2.61,12.32,4.08,6.64,2.4,6.82,2.79,4.18,9.31-6.73,16.66-13.57,33.28-20.28,49.96-13.29,33.04-26.5,66.11-39.77,99.16-.82,2.05-.91,4.65-3.75,5.51Z"/>
  <path class="b" d="m199.39,446.24c12.9-1.65,25.39.56,37.92,1.6,33.11,2.77,66.18,6.14,99.27,9.2,12.25,1.13,24.53,1.88,36.76,3.18,8.27.88,8.57,1.52,7.29,9.21-1.09,6.55-2.5,13.06-3.51,19.62-.68,4.44-2.93,5.38-6.98,4.27-11.22-3.09-22.5-5.94-33.72-9.01-40.72-11.12-81.44-22.28-122.14-33.47-5.01-1.38-9.93-3.06-14.89-4.61Z"/>
  <path class="e" d="m333.4,267.18c18.85,15.26,37.68,30.54,56.55,45.78,13.96,11.27,28.04,22.4,41.92,33.77,5.84,4.78,5.69,5.01.64,10.68-4.86,5.46-9.9,10.77-14.63,16.35-3.32,3.91-5.65,3.12-8.68-.47-18.41-21.86-37.05-43.53-55.48-65.38-9.63-11.43-18.97-23.1-28.45-34.66-2.05-2.67-3.76-5.65-6.58-7.66-1.62-1-2.99-2.21-3.56-4.12-.71-4.02-8.66-6.79-4.86-10.04,4.05-3.47,6.77,4.27,10.75,5.95.74.66,1.47,1.31,2.21,1.97,3.76,2.12,6.23,5.92,10.15,7.84Z"/>
  <path class="k" d="m1160.51,517.16c2.53-4.13,7.82-.49,10.71-3.78-1.12-3.16-3.9-2.09-5.9-2.03-20.62.61-41.11-1.99-61.68-2.7-11.56-.4-23.15-1.43-34.76-1.74-1.73-.05-3.25-.55-4.33-2.01,11.62-.41,23.19.3,34.79,1.14,19.2,1.38,38.45,1.91,57.68,2.92,13.22.69,26.42,1.59,40.39,2.45-5.42,3.81-21.37,6.1-36.91,5.75Z"/>
  <path class="g" d="m321.04,257.38c-4.27.14-5.95-4.75-10.89-5.89,1.45,4.2,5.9,5.91,5.01,9.98-1.68-1.59-3.57-3.01-5.01-4.79-5.82-7.23-12.38-13.88-16.95-22.31,9.66,7.2,20.4,13.03,27.85,23.02Z"/>
  <path class="f" d="m293.04,996.34c.19,5.4-4.35,9.08-5.28,14.83,2.53.23,3.63-2.31,5.53-2.65-2.49,8.18-9.68,12.68-14.8,18.97,3.5-11.11,6.9-22.12,14.55-31.14Z"/>
  <path class="h" d="m890.6,31.41c-.49-3.91,2.13-6.84,3.14-10.26,1.2-4.08-2.22-1.41-3.46-1.98,2.78-7.21,8.32-12.43,13.05-19.17.14,7.06-6.18,22.16-12.74,31.41Z"/>
  <path class="i" d="m894.06,1004.88c3.98,1.33,4.97-.64,4.56-4.14,6.1,6.19,8.03,14.54,12.34,22.64-7.09-4.06-10.42-7.81-16.89-18.5Z"/>
  <path class="l" d="m970.54,720.93c1.57-.26,3.13-.53,4.73-.8-.26-3.45-4.1-4.39-4.55-7.44,7.2,2.64,12.71,7.73,19.55,12.4-7.46,1.33-9.76.79-19.73-4.17Z"/>
  <path class="j" d="m293.22,35.54c-2,.93-4.25-6.86-6.08.18-4.48-5.42-5.98-12.25-8.92-18.5,6.37,5.09,12.11,10.55,14.99,18.33Z"/>
  <path class="i" d="m882.62,968.63c-7.76-8.83-12.25-19.35-15.63-30.43,6.9,9.28,11.57,19.7,15.63,30.43Z"/>
  <path class="j" d="m298.63,59.89c6.29,5.77,9.03,13.33,10.78,21.39-5.27-6.29-8.1-13.8-10.78-21.39Z"/>
  <path class="i" d="m890.5,984.61c-4.93-4.17-7.44-9.54-7.86-15.93,3.91,4.67,6.62,9.94,7.86,15.93Z"/>
  <path class="k" d="m1142.48,519.17c5.66-3.88,11.97-1.97,18.06-2.03-5.76,2.99-11.95,2.11-18.06,2.03Z"/>
  <path class="g" d="m333.4,267.18c-5.16-.32-7.61-4.13-10.15-7.84,4.95.58,7.52,4.25,10.15,7.84Z"/>
  <path class="j" d="m305.55,51.34c-3.59-1.48-6.13-3.76-6.11-8,3.22,1.76,5.35,4.36,6.11,8Z"/>
  <path class="g" d="m318.71,265.59c3.96,1.03,6.19,3.56,6.58,7.66-3.36-1.55-5.33-4.3-6.58-7.66Z"/>
  <path class="i" d="m872.57,976.63c3.46,1.7,6.26,3.87,5.94,8.28-2.79-2.18-5.31-4.55-5.94-8.28Z"/>
  <path class="i" d="m880.05,986.9c4.05,1.04,6.47,3.44,6.5,7.83-3.22-1.74-5.14-4.55-6.5-7.83Z"/>
  <path class="i" d="m886.51,994.68c3.55,1.6,6.31,3.79,5.99,8.21-2.83-2.13-5.38-4.47-5.99-8.21Z"/>
  <path class="h" d="m888.59,21.37c.34,3.1-1.13,5.03-3.93,6.11.06-2.84,1.59-4.73,3.93-6.11Z"/>
  <path class="j" d="m299.46,43.38c-2.85-.76-4.09-2.78-4.34-5.56,2.91.71,3.95,2.88,4.34,5.56Z"/>
  <path class="l" d="m970.75,712.71c-3.1.22-5.09-1.18-5.98-4.14,2.76.28,4.75,1.66,5.98,4.14Z"/>
  <path class="l" d="m964.45,718.96c2.36-.32,4.7-.6,6.13,1.98-2.35.29-4.53.04-6.13-1.98Z"/>
</svg>